<svg width="64" height="64" viewBox="0 0 64 64" fill="none" xmlns="http://www.w3.org/2000/svg">
<path d="M0 16C0 7.16344 7.16344 0 16 0H48C56.8366 0 64 7.16344 64 16V48C64 56.8366 56.8366 64 48 64H16C7.16344 64 0 56.8366 0 48V16Z" fill="#0F172B"/>
<path d="M21.3334 34.6666C21.0811 34.6674 20.8337 34.5967 20.62 34.4625C20.4063 34.3284 20.235 34.1364 20.1261 33.9088C20.0172 33.6812 19.9751 33.4273 20.0047 33.1768C20.0343 32.9262 20.1344 32.6892 20.2934 32.4932L33.4934 18.8932C33.5924 18.7789 33.7273 18.7017 33.876 18.6742C34.0247 18.6467 34.1783 18.6706 34.3117 18.7419C34.445 18.8132 34.5501 18.9278 34.6098 19.0667C34.6695 19.2057 34.6801 19.3608 34.64 19.5066L32.08 27.5332C32.0045 27.7353 31.9792 27.9526 32.0062 28.1666C32.0331 28.3806 32.1116 28.5848 32.2348 28.7618C32.3581 28.9388 32.5224 29.0832 32.7137 29.1828C32.9051 29.2823 33.1177 29.3339 33.3334 29.3332H42.6667C42.919 29.3324 43.1664 29.4031 43.3801 29.5373C43.5938 29.6714 43.7651 29.8634 43.874 30.091C43.9829 30.3186 44.025 30.5724 43.9954 30.823C43.9658 31.0736 43.8657 31.3106 43.7067 31.5066L30.5067 45.1066C30.4077 45.2208 30.2728 45.2981 30.1241 45.3256C29.9754 45.3531 29.8217 45.3292 29.6884 45.2579C29.555 45.1866 29.4499 45.072 29.3903 44.9331C29.3306 44.7941 29.3199 44.639 29.36 44.4932L31.92 36.4666C31.9955 36.2645 32.0209 36.0472 31.9939 35.8332C31.9669 35.6192 31.8885 35.415 31.7652 35.238C31.642 35.061 31.4777 34.9165 31.2863 34.817C31.095 34.7175 30.8824 34.6659 30.6667 34.6666H21.3334Z" stroke="white" stroke-width="2.66667" stroke-linecap="round" stroke-linejoin="round"/>
</svg>
