<svg width="64" height="64" viewBox="0 0 64 64" fill="none" xmlns="http://www.w3.org/2000/svg">
<path d="M0 16C0 7.16344 7.16344 0 16 0H48C56.8366 0 64 7.16344 64 16V48C64 56.8366 56.8366 64 48 64H16C7.16344 64 0 56.8366 0 48V16Z" fill="#0F172B"/>
<path d="M32 45.3334C28.4638 45.3334 25.0724 43.9287 22.5719 41.4282C20.0714 38.9277 18.6667 35.5363 18.6667 32.0001C18.6667 28.4639 20.0714 25.0725 22.5719 22.572C25.0724 20.0715 28.4638 18.6667 32 18.6667C35.5362 18.6667 38.9276 19.931 41.4281 22.1815C43.9286 24.4319 45.3334 27.4842 45.3334 30.6667C45.3334 32.4349 44.631 34.1306 43.3807 35.3808C42.1305 36.631 40.4348 37.3334 38.6667 37.3334H35.6667C35.2334 37.3334 34.8086 37.4541 34.44 37.6819C34.0714 37.9097 33.7735 38.2357 33.5797 38.6233C33.3859 39.0108 33.3039 39.4447 33.3428 39.8763C33.3817 40.3079 33.54 40.7201 33.8 41.0667L34.2 41.6001C34.46 41.9467 34.6183 42.359 34.6573 42.7905C34.6962 43.2221 34.6141 43.656 34.4204 44.0436C34.2266 44.4312 33.9287 44.7571 33.5601 44.9849C33.1914 45.2127 32.7667 45.3334 32.3334 45.3334H32Z" stroke="white" stroke-width="2.66667" stroke-linecap="round" stroke-linejoin="round"/>
<path d="M34 25.3333C34.3682 25.3333 34.6666 25.0349 34.6666 24.6667C34.6666 24.2985 34.3682 24 34 24C33.6318 24 33.3333 24.2985 33.3333 24.6667C33.3333 25.0349 33.6318 25.3333 34 25.3333Z" fill="white" stroke="white" stroke-width="2.66667" stroke-linecap="round" stroke-linejoin="round"/>
<path d="M39.3334 30.6666C39.7015 30.6666 40 30.3681 40 29.9999C40 29.6317 39.7015 29.3333 39.3334 29.3333C38.9652 29.3333 38.6667 29.6317 38.6667 29.9999C38.6667 30.3681 38.9652 30.6666 39.3334 30.6666Z" fill="white" stroke="white" stroke-width="2.66667" stroke-linecap="round" stroke-linejoin="round"/>
<path d="M24.6667 33.3333C25.0349 33.3333 25.3333 33.0349 25.3333 32.6667C25.3333 32.2985 25.0349 32 24.6667 32C24.2985 32 24 32.2985 24 32.6667C24 33.0349 24.2985 33.3333 24.6667 33.3333Z" fill="white" stroke="white" stroke-width="2.66667" stroke-linecap="round" stroke-linejoin="round"/>
<path d="M27.3334 26.6666C27.7015 26.6666 28 26.3681 28 25.9999C28 25.6317 27.7015 25.3333 27.3334 25.3333C26.9652 25.3333 26.6667 25.6317 26.6667 25.9999C26.6667 26.3681 26.9652 26.6666 27.3334 26.6666Z" fill="white" stroke="white" stroke-width="2.66667" stroke-linecap="round" stroke-linejoin="round"/>
</svg>
